<?xml version="1.0" encoding="utf-8"?>
<svg version="1.1" id="Layer_1" xmlns="http://www.w3.org/2000/svg" xmlns:xlink="http://www.w3.org/1999/xlink" x="0px" y="0px"
	 viewBox="0 0 1787.817 1738.3917" enable-background="new 0 0 1787.817 1738.3917" xml:space="preserve">
<g>
	<g>
		<path d="M1402.1052,442.8267H387.482c-12.4102,0-22.4703-10.0602-22.4703-22.4704c0-12.4102,10.0602-22.4703,22.4703-22.4703
			h1014.6232c12.4102,0,22.4703,10.0602,22.4703,22.4703C1424.5756,432.7665,1414.5154,442.8267,1402.1052,442.8267z"/>
	</g>
	<g>
		<path d="M893.9078,565.2632c-79.9016,0-144.9069-65.0052-144.9069-144.9069s65.0052-144.9069,144.9069-144.9069
			c79.903,0,144.9082,65.0053,144.9082,144.9069S973.8108,565.2632,893.9078,565.2632z M893.9078,315.2906
			c-57.9332,0-105.0657,47.1325-105.0657,105.0656S835.9747,525.422,893.9078,525.422c57.9345,0,105.067-47.1325,105.067-105.0657
			S951.8423,315.2906,893.9078,315.2906z"/>
	</g>
	<path d="M834.1467,655.1407v764.5266h125.3669V655.1407H834.1467z M907.1882,1079.158c0,7.334-5.9464,13.2804-13.2804,13.2804
		s-13.2804-5.9464-13.2804-13.2804V674.455c0-7.3347,5.9464-13.2804,13.2804-13.2804s13.2804,5.9457,13.2804,13.2804V1079.158z"/>
	<g>
		<path d="M993.0687,1503.2621H793.8223c-16.869,0-30.5449-13.676-30.5449-30.5449c0-16.869,13.676-30.5449,30.5449-30.5449
			h199.2463c16.869,0,30.5449,13.6759,30.5449,30.5449C1023.6136,1489.5861,1009.9376,1503.2621,993.0687,1503.2621z"/>
	</g>
	<g>
		<path d="M1113.4781,1584.6215H673.4128c-16.869,0-30.5449-13.676-30.5449-30.5449c0-16.869,13.676-30.5449,30.5449-30.5449
			h440.0653c16.8689,0,30.5449,13.6759,30.5449,30.5449C1144.0231,1570.9454,1130.347,1584.6215,1113.4781,1584.6215z"/>
	</g>
	<g>
		<path d="M1262.2188,1669.1958H524.6723c-16.869,0-30.545-13.6759-30.545-30.5449c0-16.8689,13.676-30.5449,30.545-30.5449
			h737.5464c16.8689,0,30.5449,13.676,30.5449,30.5449C1292.7637,1655.5199,1279.0876,1669.1958,1262.2188,1669.1958z"/>
	</g>
	<g>
		<polygon points="398.0954,496.7055 126.0863,1086.4171 177.9878,1086.4171 398.0954,614.6479 618.2031,1086.4171 
			670.1045,1086.4171 		"/>
		<g>
			<path d="M699.3499,1164.1409H97.724c-14.6694,0-26.5608-11.8914-26.5608-26.5608s11.8914-26.5608,26.5608-26.5608h601.6259
				c14.6694,0,26.5609,11.8914,26.5609,26.5608S714.0193,1164.1409,699.3499,1164.1409z"/>
		</g>
		<path d="M134.841,1183.1057C166.7527,1298.2042,272.2641,1382.7,397.5238,1382.7s230.7712-84.4957,262.6828-199.5942H134.841z"/>
	</g>
	<g>
		<polygon points="1389.7214,496.7055 1661.7305,1086.4171 1609.829,1086.4171 1389.7214,614.6479 1169.6138,1086.4171 
			1117.7123,1086.4171 		"/>
		<g>
			<path d="M1690.093,1164.1409h-601.6272c-14.6694,0-26.5608-11.8914-26.5608-26.5608s11.8914-26.5608,26.5608-26.5608h601.6272
				c14.6693,0,26.5608,11.8914,26.5608,26.5608S1704.7623,1164.1409,1690.093,1164.1409z"/>
		</g>
		<path d="M1652.9758,1183.1057C1621.0641,1298.2042,1515.5527,1382.7,1390.293,1382.7s-230.7712-84.4957-262.6827-199.5942
			H1652.9758z"/>
	</g>
	<path d="M893.9078,69.1958c-12.4102,0-22.4703,9.4872-22.4703,21.1906v544.8907v4.7074v15.1562h44.9407v-15.1562v-4.7074V90.3865
		C916.3782,78.683,906.318,69.1958,893.9078,69.1958z"/>
</g>
</svg>
